# xmcd
#
# Track frame offsets: 
#        150
#        13508
#        30327
#        42130
#        59648
#        76184
#        93032
#        107237
#        122163
#        145243
#        167227
#        187775
#        204053
#        221198
#        241259
#        261435
#        279581
#        299032
#        320923
#        341778
#
# Disc length: 4763 seconds
#
# Revision: 1
# Processed by: cddbd v1.5.2PL0 Copyright (c) Steve Scherf et al.
# Submitted via: ExactAudioCopyFreeDBPlugin 1.0
#
DISCID=2b129914
DTITLE=The Staple Singers - Faith and Grace:  A Family Journey, 1953-197
DTITLE=6
DYEAR=2015
DGENRE=Soul
TTITLE0=I See It
TTITLE1=The Ghetto
TTITLE2=When Will We Be Paid
TTITLE3=God Bless the Children
TTITLE4=The Challenge
TTITLE5=Brand New Day
TTITLE6=Heavy Makes You Happy (Sha-Na-Boom-Boom)
TTITLE7=I Like the Things About You
TTITLE8=You're Gonna Make Me Cry
TTITLE9=Respect Yourself
TTITLE10=I'll Take You There
TTITLE11=This World
TTITLE12=I'm Just Another Soldier
TTITLE13=Are You Sure
TTITLE14=If You're Ready (Come Go with Me)
TTITLE15=Touch a Hand, Make a Friend
TTITLE16=Back Road Into Town
TTITLE17=Let's Do It Again
TTITLE18=The Weight
TTITLE19=Respect Yourself (demo)
EXTD=
EXTT0=
EXTT1=
EXTT2=
EXTT3=
EXTT4=
EXTT5=
EXTT6=
EXTT7=
EXTT8=
EXTT9=
EXTT10=
EXTT11=
EXTT12=
EXTT13=
EXTT14=
EXTT15=
EXTT16=
EXTT17=
EXTT18=
EXTT19=
PLAYORDER=
